<?xml version="1.0" standalone="no"?>
<!DOCTYPE svg PUBLIC "-//W3C//DTD SVG 20010904//EN"
 "http://www.w3.org/TR/2001/REC-SVG-20010904/DTD/svg10.dtd">
<svg version="1.0" xmlns="http://www.w3.org/2000/svg"
 width="1036.000000pt" height="604.000000pt" viewBox="0 0 1036.000000 604.000000"
 preserveAspectRatio="xMidYMid meet">

<g transform="translate(0.000000,604.000000) scale(0.100000,-0.100000)"
fill="#000000" stroke="none">
<path d="M6346 5758 c38 -40 103 -118 144 -173 134 -179 201 -229 311 -236
l54 -4 3 55 c5 102 -56 159 -298 280 -85 43 -184 94 -219 114 l-64 37 69 -73z"/>
<path d="M4045 5811 c-6 -5 -95 -53 -200 -106 -304 -155 -369 -216 -346 -327
7 -33 8 -33 57 -30 109 8 168 53 319 247 52 66 116 144 144 173 28 28 47 52
43 52 -5 0 -12 -4 -17 -9z"/>
<path d="M5275 5712 c-198 -313 -385 -804 -387 -1019 -1 -71 3 -90 30 -147 38
-81 105 -149 192 -195 59 -31 62 -32 47 -10 -10 13 -17 40 -17 59 0 36 34 163
67 250 l17 45 12 -75 c6 -42 26 -108 43 -147 37 -86 38 -106 6 -138 -17 -18
-20 -25 -9 -25 63 0 175 98 225 197 70 137 47 279 -84 535 -77 151 -101 216
-117 313 -12 71 -12 232 -1 330 5 39 8 71 7 72 -1 1 -15 -19 -31 -45z m-52
-249 c-7 -120 18 -273 57 -359 16 -37 55 -107 86 -156 104 -164 149 -309 125
-404 -12 -49 -59 -140 -67 -131 -3 3 6 32 20 65 36 89 38 112 22 189 -17 84
-60 181 -119 271 -107 162 -136 256 -137 442 -1 142 0 143 -66 -22 -165 -409
-226 -719 -166 -839 13 -26 39 -63 59 -83 20 -20 33 -36 29 -36 -20 0 -69 46
-93 88 -27 46 -28 51 -27 192 1 131 4 157 33 265 18 66 55 181 82 255 50 136
148 350 161 350 3 0 4 -39 1 -87z"/>
<path d="M6920 5564 c6 -15 17 -86 26 -158 18 -153 33 -193 103 -260 l50 -50
22 49 c27 62 23 139 -13 216 -24 53 -119 168 -173 211 l-25 20 10 -28z"/>
<path d="M3361 5513 c-128 -133 -170 -263 -120 -373 l20 -45 59 61 c66 68 75
91 90 239 6 54 15 116 21 138 6 21 8 42 4 45 -3 3 -37 -26 -74 -65z"/>
<path d="M3130 5238 c-89 -122 -125 -199 -136 -294 -8 -61 15 -145 49 -188
l24 -29 36 47 c72 95 82 128 77 251 -3 61 -4 147 -3 193 2 45 1 82 0 82 -1 0
-22 -28 -47 -62z"/>
<path d="M7175 5103 l0 -198 33 -60 c18 -33 44 -73 59 -89 25 -29 26 -29 40
-10 59 76 73 194 35 292 -26 67 -90 175 -134 225 l-33 39 0 -199z"/>
<path d="M3695 5260 c-11 -5 -61 -9 -110 -9 -85 -1 -94 -3 -142 -33 -28 -18
-61 -45 -73 -60 l-21 -28 28 -11 c49 -20 134 -15 185 11 37 18 177 142 158
139 -3 0 -14 -4 -25 -9z"/>
<path d="M6692 5213 c93 -88 129 -107 202 -106 34 0 74 6 90 12 l29 12 -34 35
c-64 66 -93 78 -209 85 -58 3 -113 9 -123 14 -10 4 10 -19 45 -52z"/>
<path d="M3506 4980 c-16 -10 -61 -24 -100 -30 -120 -19 -168 -45 -224 -124
l-32 -44 32 -7 c53 -12 127 -7 165 12 42 20 123 99 171 166 36 51 33 56 -12
27z"/>
<path d="M6819 4983 c22 -40 120 -150 157 -175 22 -15 60 -32 85 -36 53 -10
131 -2 136 14 5 15 -83 111 -118 130 -16 8 -66 21 -111 30 -45 8 -99 24 -120
35 -36 19 -39 19 -29 2z"/>
<path d="M2889 4839 c-72 -148 -84 -190 -84 -304 0 -79 4 -107 19 -135 28 -52
77 -110 93 -110 8 0 31 35 51 78 48 104 52 166 18 292 -14 52 -31 135 -38 184
l-13 89 -46 -94z"/>
<path d="M7413 4923 c9 -16 -14 -167 -38 -253 -35 -123 -33 -193 6 -283 44
-102 51 -108 90 -72 17 17 43 53 57 80 24 44 27 61 27 140 -1 59 -7 109 -19
145 -24 75 -107 250 -118 250 -5 0 -7 -3 -5 -7z"/>
<path d="M3356 4644 c-21 -18 -67 -43 -105 -55 -97 -32 -135 -54 -169 -96 -39
-51 -74 -121 -66 -134 11 -18 124 1 178 29 26 15 64 44 83 66 30 36 128 215
121 221 -2 2 -20 -12 -42 -31z"/>
<path d="M6960 4675 c0 -4 19 -46 42 -93 50 -100 112 -173 171 -200 47 -23
162 -39 171 -24 9 15 -46 113 -85 153 -22 22 -61 45 -95 58 -33 12 -77 28
-100 36 -22 9 -55 29 -72 46 -18 17 -32 28 -32 24z"/>
<path d="M2722 4415 c-63 -208 -69 -373 -19 -480 16 -33 38 -71 50 -84 25 -27
96 -81 107 -81 20 0 45 120 45 215 l0 100 -59 125 c-32 69 -69 159 -81 200
l-22 75 -21 -70z"/>
<path d="M7596 4418 c-9 -34 -47 -128 -83 -207 l-66 -144 6 -101 c4 -92 29
-196 45 -196 4 0 30 17 57 38 60 46 110 125 126 201 16 77 5 226 -25 336 -40
148 -40 147 -60 73z"/>
<path d="M3290 4292 c0 -20 -85 -92 -165 -139 -93 -56 -138 -109 -161 -191 -8
-31 -18 -66 -21 -76 -5 -17 -1 -18 43 -12 99 13 184 73 231 163 31 59 89 250
79 261 -3 3 -6 0 -6 -6z"/>
<path d="M7084 4193 c18 -60 45 -132 61 -161 48 -89 128 -145 224 -158 l52 -7
-7 29 c-32 134 -79 199 -186 261 -46 26 -104 69 -129 95 l-46 48 31 -107z"/>
<path d="M5196 4198 c-4 -38 -9 -68 -11 -68 -1 0 -51 23 -111 52 -124 58 -199
73 -224 43 -11 -13 -17 -55 -21 -144 -4 -101 -10 -136 -28 -176 -12 -27 -25
-71 -28 -97 -5 -39 -2 -49 16 -64 27 -24 27 -51 -5 -170 -35 -135 -36 -205 -5
-238 14 -14 30 -26 38 -26 11 0 13 -141 13 -794 0 -437 -3 -801 -6 -810 -10
-27 -21 -18 -27 21 -8 65 -58 154 -126 226 -75 80 -139 127 -303 225 -112 67
-144 79 -97 36 25 -23 83 -125 104 -183 8 -24 26 -91 39 -150 13 -59 34 -129
47 -156 28 -59 127 -161 194 -201 l48 -28 -44 -19 c-39 -16 -49 -17 -89 -5
-74 21 -229 14 -375 -17 -115 -25 -157 -28 -365 -32 -236 -5 -361 1 -805 38
-363 30 -758 74 -980 109 -66 10 -141 20 -168 22 l-47 3 -1 -519 c0 -285 4
-523 8 -527 10 -10 265 -52 443 -73 695 -84 1542 -151 2220 -177 334 -13 1147
-7 1490 11 354 18 753 40 815 45 772 63 1537 147 1670 183 l30 8 3 528 2 528
-27 -6 c-143 -31 -691 -96 -1053 -125 -754 -62 -1032 -66 -1270 -16 -186 39
-317 39 -414 1 -38 -14 -70 -25 -71 -24 -37 56 -40 48 29 94 88 59 159 132
190 196 14 29 38 105 52 168 30 133 61 210 119 296 l42 61 -110 -64 c-179
-104 -280 -184 -364 -288 l-32 -40 -1 573 0 572 38 0 c28 0 45 7 62 25 21 22
22 30 16 94 -3 38 -13 103 -21 143 -47 220 -94 610 -95 778 0 138 -8 164 -56
173 -19 3 -52 -9 -115 -41 -72 -37 -101 -47 -153 -50 l-65 -4 -3 73 -3 74 -9
-67z m2572 -2784 l44 -26 -28 -29 c-30 -32 -58 -36 -113 -17 -20 7 -37 13 -39
14 -7 5 21 50 42 66 28 24 42 22 94 -8z m370 -143 c20 -10 43 -16 50 -14 22 8
13 -15 -22 -51 -37 -40 -50 -43 -103 -21 -20 8 -38 14 -39 12 -2 -2 4 -57 14
-122 16 -113 18 -119 47 -137 29 -18 52 -19 103 -3 24 8 24 7 9 -22 -23 -44
-78 -93 -104 -93 -28 0 -74 22 -92 44 -8 9 -22 16 -32 16 -25 0 -24 9 5 39 24
26 24 27 10 106 -23 141 -21 159 32 215 51 55 67 59 122 31z m-5802 -16 c3
-14 4 -39 0 -55 -7 -38 -2 -38 37 1 39 40 91 62 126 54 25 -6 118 -81 110 -89
-2 -2 -25 -12 -50 -24 -51 -22 -48 -13 -70 -168 -10 -75 -14 -85 -49 -119 -39
-38 -88 -50 -136 -32 -19 7 -23 3 -28 -29 -9 -45 11 -78 59 -98 19 -8 35 -17
35 -20 0 -3 -14 -13 -32 -22 -38 -20 -120 -15 -146 9 -9 9 -30 22 -45 30 l-28
15 45 26 c41 24 45 30 54 83 11 64 5 78 -38 95 l-25 10 38 19 c44 23 50 36 66
144 l12 80 -26 23 c-14 12 -33 22 -41 22 -27 0 -10 22 36 46 59 32 88 31 96
-1z m5487 -50 l38 -22 -41 -37 -41 -37 11 -77 c6 -42 16 -89 21 -103 12 -29
46 -49 87 -49 26 0 25 -1 -18 -45 -58 -59 -78 -64 -134 -31 -25 14 -55 26 -68
26 -21 0 -19 4 20 41 l43 41 -12 91 c-13 95 -30 127 -69 127 -27 0 -26 5 16
53 53 63 72 66 147 22z m-5053 -12 c0 -16 -7 -73 -15 -128 -27 -185 -17 -230
48 -223 46 4 75 68 83 179 7 85 7 86 -21 108 -31 24 -30 27 32 61 l42 23 27
-26 c14 -14 35 -29 45 -32 28 -9 23 -20 -16 -44 -43 -25 -51 -44 -60 -142 -8
-91 7 -131 56 -148 31 -11 32 -12 14 -31 -28 -31 -98 -54 -124 -41 -22 12 -37
52 -27 76 9 23 -3 18 -29 -14 -31 -36 -77 -55 -110 -47 -15 4 -46 25 -71 48
l-45 42 39 35 c38 35 40 40 51 125 9 79 9 92 -6 108 -9 10 -24 18 -34 18 -36
0 -29 21 17 50 27 16 61 30 76 30 24 0 28 -4 28 -27z m4743 -13 c26 -16 52
-30 57 -30 19 0 10 -15 -41 -66 l-50 -51 45 -13 c55 -15 73 -34 81 -86 6 -36
3 -45 -40 -102 -75 -99 -149 -126 -216 -77 -19 13 -44 30 -57 36 l-22 12 22
24 c21 22 21 26 10 128 -7 63 -8 114 -3 128 12 32 130 124 162 127 3 0 26 -13
52 -30z m-4285 -68 l3 -53 44 44 c63 63 113 69 135 17 7 -16 9 -41 6 -55 -4
-14 -4 -25 -1 -25 2 0 23 20 45 44 51 55 81 64 123 36 18 -11 44 -28 59 -37
34 -22 35 -29 3 -37 -39 -10 -52 -43 -59 -148 -7 -94 -6 -99 16 -120 14 -13
33 -28 43 -34 18 -10 16 -13 -25 -43 -24 -17 -53 -31 -64 -29 -39 6 -46 41
-33 190 12 156 6 188 -38 188 -43 0 -72 -42 -80 -113 -3 -34 -8 -74 -11 -88
-3 -17 4 -38 21 -63 15 -22 23 -42 18 -46 -4 -3 -21 -16 -37 -28 l-29 -22 -34
30 c-18 17 -39 30 -45 30 -6 0 -2 10 10 23 31 33 39 61 46 167 7 89 6 97 -14
115 -16 15 -26 17 -47 9 -44 -16 -63 -52 -73 -147 -11 -91 -5 -118 29 -144 9
-7 11 -13 5 -13 -6 0 -28 -11 -48 -25 l-38 -26 -33 30 c-18 16 -39 31 -47 35
-11 5 -11 7 0 12 7 3 24 16 38 28 21 18 26 35 36 128 12 118 7 138 -38 138
-13 0 -24 6 -24 13 0 22 82 77 110 74 23 -2 25 -7 28 -55z m3942 22 c28 -14
50 -29 50 -32 0 -4 -18 -22 -40 -42 l-40 -35 12 -107 c12 -121 7 -146 -43
-194 -24 -22 -39 -29 -74 -29 l-45 0 0 -37 c0 -43 30 -72 86 -83 35 -6 36 -7
17 -27 -23 -26 -66 -48 -94 -48 -19 0 -126 28 -138 36 -2 2 14 17 34 35 37 33
37 34 32 91 -6 67 -19 88 -53 88 -33 0 -30 14 7 41 l32 22 -7 96 c-7 106 -20
131 -67 131 -15 0 -30 4 -33 8 -9 15 82 92 108 92 16 0 36 -36 36 -66 0 -37
15 -46 25 -15 10 32 92 101 120 101 14 0 48 -12 75 -26z m-3320 -38 c5 -14 4
-79 -2 -165 -13 -168 -7 -191 45 -191 46 0 66 25 77 96 17 102 13 165 -12 191
-21 23 -21 23 -2 38 62 50 60 50 99 11 l36 -36 -22 -32 c-29 -41 -36 -121 -19
-238 11 -77 11 -93 -4 -136 -29 -85 -105 -151 -185 -161 -41 -5 -57 -1 -96 21
-26 14 -56 26 -66 26 -31 0 -22 18 24 45 60 35 95 32 150 -10 53 -40 54 -41
79 -18 15 13 18 31 17 97 0 45 -4 89 -8 100 -6 16 -11 14 -39 -21 -44 -55 -80
-70 -124 -49 -31 16 -104 75 -96 80 73 46 76 51 83 151 7 84 5 98 -10 115 -10
11 -26 20 -37 20 -26 0 -23 9 19 52 43 45 79 50 93 14z m2890 -8 c74 -80 32
-161 -112 -220 -69 -28 -76 -51 -26 -93 29 -25 38 -27 90 -22 32 3 58 1 58 -3
0 -20 -75 -80 -107 -86 -35 -7 -57 1 -128 43 -16 10 -32 19 -34 20 -2 2 4 12
14 23 16 18 17 32 11 125 -8 126 -3 139 82 202 73 53 111 56 152 11z m-326
-28 c18 -5 16 -9 -17 -43 -43 -42 -59 -45 -105 -17 -18 11 -35 20 -37 20 -7 0
-6 -136 2 -199 5 -45 11 -56 37 -72 30 -19 43 -19 94 -4 34 11 27 -9 -21 -60
-57 -59 -98 -62 -157 -9 -21 20 -44 33 -49 30 -5 -4 -12 -2 -16 3 -3 6 8 20
25 33 l31 22 -7 108 c-8 125 0 153 54 195 53 41 63 43 107 19 22 -11 49 -23
59 -26z m-1991 -4 c29 -23 59 -45 67 -48 9 -3 -4 -17 -33 -38 l-47 -33 0 -98
c0 -109 9 -129 61 -129 16 0 29 -4 29 -8 0 -11 -62 -68 -82 -75 -22 -8 -68 29
-68 54 0 16 -6 14 -46 -16 -64 -49 -101 -48 -153 6 l-41 40 25 22 c22 20 25
32 31 127 4 58 10 115 15 127 8 21 151 113 176 113 7 0 36 -20 66 -44z m404
-18 c29 -13 53 -25 53 -28 0 -3 -16 -15 -35 -28 l-35 -22 -2 -83 c-2 -144 9
-177 62 -177 38 0 39 -18 2 -53 -40 -39 -84 -45 -111 -16 -20 21 -21 33 -21
178 l0 156 -32 11 c-18 6 -40 14 -49 18 -27 12 -31 -34 -14 -165 12 -94 13
-129 5 -155 -11 -33 -55 -74 -92 -87 -25 -9 -22 5 3 21 23 15 23 23 3 223 -9
95 5 129 79 190 69 58 86 59 184 17z m876 -81 c11 -29 -12 -35 -178 -42 -152
-6 -172 -5 -184 9 -29 35 5 41 230 44 98 2 128 -1 132 -11z"/>
<path d="M2354 1157 c-22 -19 -29 -38 -39 -103 -7 -43 -9 -86 -5 -94 17 -30
79 -82 93 -77 9 3 19 44 30 118 21 139 21 144 1 163 -22 22 -48 20 -80 -7z"/>
<path d="M7354 1038 c4 -45 9 -84 11 -87 7 -6 105 96 105 109 0 26 -49 60 -86
60 l-37 0 7 -82z"/>
<path d="M7387 942 c-26 -29 -20 -57 20 -92 73 -65 123 -69 123 -10 0 64 -12
92 -46 106 -45 19 -78 18 -97 -4z"/>
<path d="M6979 1028 c-17 -28 -19 -43 -14 -103 9 -97 11 -102 59 -130 63 -37
76 -34 76 18 0 72 -20 220 -32 234 -6 7 -23 13 -39 13 -22 0 -34 -8 -50 -32z"/>
<path d="M6572 1038 c-13 -13 -16 -94 -6 -146 6 -30 7 -31 33 -18 77 40 107
119 59 150 -35 22 -71 29 -86 14z"/>
<path d="M4242 1003 c-5 -10 -12 -66 -15 -125 l-7 -106 35 -31 c40 -35 70 -40
84 -13 6 11 11 68 12 127 l1 109 -31 28 c-36 32 -66 36 -79 11z"/>
<path d="M7715 3920 c-24 -55 -79 -137 -170 -256 -103 -135 -109 -154 -110
-311 0 -72 3 -134 7 -138 3 -4 34 5 67 20 111 50 191 159 226 309 15 64 19
278 7 371 l-7 50 -20 -45z"/>
<path d="M2620 3943 c0 -5 -5 -52 -10 -106 -26 -264 45 -483 184 -572 51 -32
116 -59 124 -51 2 3 6 49 9 103 9 166 -8 212 -149 392 -37 47 -86 121 -108
164 -38 72 -50 88 -50 70z"/>
<path d="M3251 3853 c-9 -25 -50 -74 -122 -145 -102 -101 -109 -110 -128 -175
-20 -69 -34 -190 -22 -198 14 -8 135 59 172 96 74 74 103 162 115 343 4 64 5
116 2 116 -2 0 -10 -17 -17 -37z"/>
<path d="M7088 3843 c14 -233 36 -318 97 -391 34 -39 109 -89 169 -112 l29
-11 -5 88 c-8 129 -30 172 -143 281 -59 56 -103 109 -119 141 -15 28 -27 51
-29 51 -1 0 -1 -21 1 -47z"/>
<path d="M3321 3370 c-14 -63 -39 -115 -106 -210 -28 -41 -57 -90 -63 -109
-21 -60 -11 -280 14 -310 1 -2 30 17 62 43 109 83 152 176 152 327 0 72 -33
295 -45 307 -2 2 -8 -20 -14 -48z"/>
<path d="M7001 3315 c-16 -73 -23 -143 -23 -211 0 -94 2 -108 32 -172 31 -69
68 -112 142 -167 28 -20 39 -24 43 -14 25 71 33 225 15 289 -5 19 -25 58 -44
85 -79 113 -116 183 -129 240 l-13 59 -23 -109z"/>
<path d="M2616 3303 c2 -10 13 -72 25 -138 64 -357 206 -536 451 -571 l48 -6
-6 48 c-10 76 -40 186 -65 239 -26 56 -81 110 -233 232 -60 49 -132 116 -160
150 -54 64 -67 74 -60 46z"/>
<path d="M7730 3312 c0 -14 -172 -179 -245 -234 -117 -89 -179 -158 -208 -231
-27 -67 -64 -243 -54 -253 3 -4 34 -1 67 4 175 31 295 146 371 354 41 112 93
368 75 368 -3 0 -6 -4 -6 -8z"/>
<path d="M3519 2908 c4 -75 -11 -146 -51 -247 -54 -138 -48 -233 27 -396 l36
-80 39 45 c22 25 54 74 72 110 32 62 33 69 33 180 -1 105 -3 122 -31 190 -39
95 -117 259 -124 260 -3 0 -3 -28 -1 -62z"/>
<path d="M6779 2855 c-87 -183 -102 -237 -97 -353 4 -112 26 -170 98 -261 l43
-54 28 54 c86 166 94 275 34 434 -31 82 -39 118 -44 200 l-6 99 -56 -119z"/>
<path d="M2780 2645 c0 -4 27 -63 60 -132 116 -242 234 -386 374 -456 67 -34
87 -39 169 -44 50 -2 109 -1 129 4 l37 8 -33 75 c-64 147 -139 242 -232 294
-27 15 -103 50 -168 77 -101 41 -209 99 -313 167 -13 8 -23 11 -23 7z"/>
<path d="M7515 2614 c-62 -44 -213 -121 -324 -164 -111 -45 -191 -97 -241
-161 -46 -58 -146 -256 -135 -267 4 -4 59 -7 123 -7 115 0 119 1 196 38 91 43
206 151 271 252 69 109 184 346 167 344 -4 0 -29 -16 -57 -35z"/>
<path d="M3836 2545 c34 -96 37 -124 35 -305 -1 -143 2 -195 13 -228 30 -84
180 -283 203 -269 6 4 24 37 39 74 26 61 29 79 29 183 0 108 -2 119 -32 185
-17 39 -57 104 -87 145 -66 88 -211 244 -200 215z"/>
<path d="M6433 2463 c-111 -124 -155 -183 -195 -269 -32 -66 -33 -74 -33 -189
0 -109 3 -126 29 -190 16 -38 30 -72 33 -74 6 -7 82 70 123 124 21 28 50 75
66 105 l29 55 0 210 c0 187 3 216 21 268 12 31 20 57 18 57 -1 0 -42 -44 -91
-97z"/>
<path d="M111 2292 c23 -18 252 -170 474 -314 140 -91 378 -232 568 -338 89
-49 170 -95 180 -102 15 -12 3 -16 -100 -37 -344 -68 -1113 -258 -1136 -280
-6 -6 309 -73 458 -97 22 -3 171 -30 330 -60 377 -70 822 -144 865 -144 20 0
20 6 20 370 l0 369 38 10 c20 5 55 14 77 20 172 43 729 133 969 157 38 4 63
10 55 14 -14 7 -185 28 -459 55 -843 84 -1796 241 -2285 376 -85 23 -83 23
-54 1z"/>
<path d="M10170 2294 c-350 -88 -695 -158 -1125 -228 -403 -66 -1454 -196
-1588 -196 -61 0 -33 -17 40 -25 216 -22 744 -108 943 -154 l115 -27 5 -374
c3 -242 9 -374 15 -373 226 34 298 46 675 114 305 54 504 90 734 135 127 24
239 44 250 44 91 2 -250 93 -869 233 -82 19 -201 45 -262 57 -62 13 -113 26
-113 29 0 6 25 21 125 76 229 124 429 242 583 341 250 160 542 354 542 359 0
6 -4 6 -70 -11z"/>
<path d="M3140 1995 c0 -25 245 -283 330 -349 171 -131 346 -187 493 -156 48
10 174 54 186 65 8 8 -93 127 -160 189 -112 103 -194 136 -394 156 -161 16
-344 56 -437 95 -10 4 -18 4 -18 0z"/>
<path d="M7140 1975 c-86 -31 -240 -61 -375 -75 -60 -6 -130 -16 -155 -21 -76
-17 -164 -66 -235 -131 -69 -63 -165 -172 -165 -187 0 -5 37 -23 82 -41 227
-89 448 -21 696 214 66 63 205 219 226 254 9 16 4 15 -74 -13z"/>
<path d="M2835 1805 c-137 -24 -371 -64 -520 -90 -363 -61 -345 -56 -259 -71
96 -17 519 -59 839 -84 72 -5 156 -13 188 -16 l57 -5 0 156 0 155 -27 -1 c-16
-1 -140 -21 -278 -44z"/>
<path d="M7190 1696 l0 -157 98 6 c195 13 1061 100 1069 108 1 1 -85 17 -190
35 -106 19 -266 46 -357 62 -398 69 -518 90 -567 96 l-53 7 0 -157z"/>
</g>
</svg>
