<?xml version="1.0" standalone="no"?>
<!DOCTYPE svg PUBLIC "-//W3C//DTD SVG 20010904//EN"
 "http://www.w3.org/TR/2001/REC-SVG-20010904/DTD/svg10.dtd">
<svg version="1.0" xmlns="http://www.w3.org/2000/svg"
 width="904.000000pt" height="230.000000pt" viewBox="0 0 904.000000 230.000000"
 preserveAspectRatio="xMidYMid meet">

<g transform="translate(0.000000,230.000000) scale(0.100000,-0.100000)"
fill="#000000" stroke="none">
<path d="M605 1949 c-243 -22 -379 -172 -363 -399 8 -108 56 -177 153 -222 41
-19 67 -23 145 -23 86 0 100 3 143 28 71 42 61 77 -13 41 -19 -10 -68 -19
-119 -22 -74 -4 -93 -2 -127 16 -89 45 -138 144 -114 232 33 122 162 151 425
95 162 -34 166 -36 127 -64 -47 -33 -132 -70 -179 -77 -47 -7 -55 -19 -20 -30
30 -9 65 -38 94 -76 20 -27 23 -44 23 -115 l0 -83 -90 0 -90 0 0 -65 0 -65 90
0 90 0 0 -169 c0 -154 -2 -170 -20 -194 -20 -25 -21 -26 -62 -11 -23 8 -74 18
-113 22 -139 15 -252 -18 -339 -98 -58 -53 -82 -93 -96 -154 -15 -70 -2 -76
59 -27 78 61 100 62 249 6 222 -82 312 -91 419 -39 87 42 151 137 189 279 16
62 18 115 19 475 l0 406 150 0 c147 -1 152 0 233 32 62 25 98 48 144 90 60 56
138 162 138 189 0 19 -33 16 -61 -6 -73 -56 -108 -66 -234 -65 -75 1 -162 9
-230 22 -405 76 -477 84 -620 71z m428 -319 c4 0 7 -179 5 -397 -3 -395 -3
-398 -27 -451 -28 -62 -71 -102 -110 -102 -15 0 -48 7 -74 16 l-47 16 63 31
c101 52 97 32 97 503 l0 401 43 -8 c23 -4 46 -8 50 -9z"/>
<path d="M4730 1826 c-25 -13 -58 -38 -74 -55 -36 -38 -24 -63 28 -54 27 4 39
-1 69 -27 58 -51 52 -91 -31 -188 -48 -57 -47 -80 3 -68 37 9 126 101 153 156
15 33 40 58 82 89 65 45 74 70 29 81 -14 4 -50 24 -81 44 -73 49 -118 54 -178
22z"/>
<path d="M1430 1573 c-70 -53 -110 -98 -127 -142 -16 -41 -18 -88 -18 -436 0
-440 5 -477 70 -542 73 -73 171 -24 240 121 18 39 41 97 51 129 23 74 13 87
-44 58 -71 -36 -122 -25 -141 30 -7 21 -11 149 -11 373 0 313 2 344 19 383 28
60 16 68 -39 26z"/>
<path d="M8243 1365 c-75 -37 -159 -107 -148 -124 3 -6 30 -18 60 -27 85 -24
85 -24 85 -275 l0 -217 -64 -48 c-77 -58 -85 -71 -50 -84 13 -6 52 -28 85 -51
33 -22 99 -59 146 -82 l86 -41 81 17 c70 14 94 25 179 83 54 36 104 73 112 81
12 11 15 43 15 142 l0 127 65 52 c57 46 82 82 57 82 -5 0 -34 20 -66 45 -106
82 -156 105 -227 105 -79 0 -126 -22 -204 -95 -33 -30 -61 -55 -62 -55 -2 0
-3 38 -3 84 l0 83 75 54 c41 29 75 58 75 64 -1 23 -173 115 -215 115 -7 0 -44
-16 -82 -35z m372 -420 c65 -38 75 -68 75 -234 0 -133 -1 -141 -20 -141 -54 0
-247 106 -269 149 -18 33 -12 103 14 158 42 91 118 117 200 68z"/>
<path d="M2383 1371 c-72 -33 -277 -158 -301 -184 -35 -38 -42 -83 -42 -308
l0 -205 -27 -25 c-16 -14 -40 -33 -55 -42 -34 -21 -35 -35 -5 -46 12 -5 47
-34 77 -65 58 -60 96 -78 164 -78 58 0 106 22 193 87 40 30 74 55 77 55 2 0 7
-12 11 -27 10 -40 49 -88 84 -103 41 -16 88 -7 144 31 45 29 117 115 117 138
0 7 -21 11 -55 11 -65 0 -116 19 -139 51 -13 20 -16 54 -16 219 l0 195 96 63
c79 52 93 66 84 78 -7 8 -21 14 -32 14 -28 0 -54 16 -128 75 -112 90 -163 104
-247 66z m-55 -163 c23 -13 62 -43 87 -66 l45 -44 0 -227 c0 -215 -1 -228 -20
-249 -13 -13 -33 -22 -51 -22 -40 0 -143 55 -175 92 -24 29 -24 30 -24 257 0
216 1 230 21 255 26 33 61 34 117 4z"/>
<path d="M5685 1383 c-44 -12 -335 -214 -350 -243 -19 -37 -19 -103 -1 -139
31 -59 133 -131 186 -131 35 0 14 -17 -36 -29 -63 -16 -119 -46 -138 -73 -21
-30 -20 -73 4 -144 27 -75 36 -173 21 -202 -6 -12 -23 -25 -36 -28 -27 -7 -31
-14 -14 -31 16 -16 84 9 143 55 32 23 61 57 79 92 28 53 29 59 25 168 -4 93
-2 115 11 126 12 11 185 86 197 86 2 0 4 -83 6 -184 3 -210 7 -222 88 -263 75
-39 165 -11 240 74 74 84 73 91 -8 99 -68 7 -113 33 -139 79 -21 38 -23 51
-23 251 l0 211 63 43 c107 75 105 70 39 98 -167 71 -297 102 -357 85z m23
-208 l72 -18 0 -106 0 -106 -62 -23 -62 -22 -37 36 c-52 51 -83 124 -83 199 0
33 3 68 6 77 7 16 10 16 50 -1 24 -11 76 -27 116 -36z"/>
<path d="M3438 1366 c-15 -8 -45 -28 -65 -45 -21 -17 -72 -57 -114 -89 -88
-69 -114 -113 -129 -222 -11 -79 -3 -180 30 -350 34 -178 25 -226 -48 -257
-31 -13 -33 -16 -19 -30 14 -14 21 -13 72 11 83 38 130 80 161 142 26 53 27
60 21 157 -4 56 -16 156 -27 222 -24 141 -25 223 -6 269 19 46 31 50 63 27 34
-25 133 -61 168 -61 l25 0 0 -227 c0 -257 -1 -262 -83 -334 -39 -34 -44 -59
-11 -59 24 0 96 -40 137 -77 21 -18 43 -31 49 -27 6 4 44 31 85 60 40 29 82
56 93 59 28 9 25 32 -7 49 -35 18 -66 51 -87 93 -13 26 -16 68 -16 242 l0 210
56 40 56 40 27 -19 c14 -10 52 -26 83 -35 l56 -16 4 -297 c3 -278 4 -300 24
-337 23 -45 83 -85 128 -85 64 0 110 23 174 87 81 83 81 98 0 106 -64 6 -97
23 -132 71 -19 25 -21 44 -24 241 l-3 214 63 42 c113 76 115 66 -28 121 -69
27 -150 54 -180 60 l-54 11 -75 -57 c-41 -31 -78 -56 -83 -56 -4 0 -46 20 -93
44 -138 72 -233 92 -291 62z"/>
<path d="M6574 1331 c-32 -21 -81 -58 -107 -83 -62 -58 -57 -78 19 -78 45 0
59 -5 86 -29 l33 -29 0 -227 0 -226 -41 -37 c-22 -20 -55 -45 -72 -54 -18 -9
-32 -21 -32 -26 0 -4 24 -18 54 -31 29 -12 77 -40 107 -61 29 -22 54 -40 55
-40 2 0 20 15 40 32 20 18 62 47 93 63 31 17 56 36 56 43 0 6 -16 20 -35 30
-23 11 -43 33 -58 62 -22 43 -23 54 -20 221 3 176 3 176 33 224 62 100 180
123 232 46 22 -33 23 -42 23 -247 0 -119 -4 -225 -10 -241 -6 -15 -29 -44 -51
-64 -44 -39 -45 -53 -3 -63 25 -7 72 -37 137 -88 l27 -22 28 22 c15 13 47 37
71 55 24 18 53 40 65 50 21 18 21 18 1 30 -47 28 -103 94 -114 132 -6 22 -11
105 -11 185 0 168 10 201 78 263 47 42 91 48 142 22 61 -32 64 -50 70 -375 3
-162 9 -304 14 -315 42 -97 136 -86 265 30 61 55 53 83 -27 99 -46 8 -86 39
-106 80 -13 28 -16 70 -16 229 0 225 -1 222 99 276 66 35 77 55 33 64 -15 3
-50 21 -78 40 -82 56 -130 77 -179 77 -82 0 -175 -66 -252 -177 l-38 -56 -6
80 c-9 122 -35 153 -129 153 -81 0 -145 -40 -223 -140 l-62 -79 -11 92 c-10
74 -16 94 -34 109 -35 29 -80 22 -146 -21z"/>
</g>
</svg>
